<?xml version="1.0" encoding="utf-8"?>
<!-- Generator: Adobe Illustrator 24.0.2, SVG Export Plug-In . SVG Version: 6.00 Build 0)  -->
<svg version="1.1"
	 id="svg2" inkscape:version="0.48.4 r9939" sodipodi:docname="New document 1" xmlns:cc="http://creativecommons.org/ns#" xmlns:dc="http://purl.org/dc/elements/1.1/" xmlns:inkscape="http://www.inkscape.org/namespaces/inkscape" xmlns:rdf="http://www.w3.org/1999/02/22-rdf-syntax-ns#" xmlns:sodipodi="http://sodipodi.sourceforge.net/DTD/sodipodi-0.dtd" xmlns:svg="http://www.w3.org/2000/svg"
	 xmlns="http://www.w3.org/2000/svg" xmlns:xlink="http://www.w3.org/1999/xlink" x="0px" y="0px" viewBox="0 0 582 930"
	 style="enable-background:new 0 0 582 930;" xml:space="preserve">
<style type="text/css">
	.st0{fill:#FF6A9D;}
	.st1{fill:#FFFCC2;}
	.st2{fill:#C2F0FF;}
	.st3{fill:#C7FFC2;}
	.st4{fill:#C2FDFF;}
	.st5{fill:#93FFAC;}
</style>
<sodipodi:namedview  bordercolor="#666666" borderopacity="1.0" fit-margin-bottom="0" fit-margin-left="0" fit-margin-right="0" fit-margin-top="0" id="base" inkscape:current-layer="layer1" inkscape:cx="6.3969031" inkscape:cy="484.35652" inkscape:document-units="px" inkscape:pageopacity="0.0" inkscape:pageshadow="2" inkscape:window-height="1181" inkscape:window-maximized="0" inkscape:window-width="1166" inkscape:window-x="0" inkscape:window-y="0" inkscape:zoom="0.49497475" pagecolor="#ffffff" showgrid="false">
	</sodipodi:namedview>
<g id="layer1" transform="translate(-62.857143,-38.169022)" inkscape:groupmode="layer" inkscape:label="Layer 1">
	<path id="path2985" inkscape:connector-curvature="0" sodipodi:nodetypes="cccc" class="st0" d="M62.9,886.7l288.5-777.3
		l294.3,774.2C451.4,984.3,257.2,1006.6,62.9,886.7z"/>
	
		<path id="path3755" inkscape:flatsided="false" inkscape:randomized="0" inkscape:rounded="0.05" inkscape:transform-center-x="3.8973855" inkscape:transform-center-y="-3.8973855" sodipodi:arg1="0.78539816" sodipodi:arg2="1.4137167" sodipodi:cx="345.71429" sodipodi:cy="523.79077" sodipodi:r1="84.852814" sodipodi:r2="33.941124" sodipodi:sides="5" sodipodi:type="star" class="st1" d="
		M426,502.9c-2.1,2.1-51.7-26.9-54.7-26.5s-41.1,43.4-43.9,42s9.7-57.5,8.3-60.2c-1.4-2.7-54-25.7-53.5-28.7
		c0.5-3,57.6-8.6,59.7-10.7c2.1-2.1,7.7-59.3,10.7-59.7c3-0.5,26,52.2,28.7,53.5c2.7,1.4,58.8-11,60.2-8.3
		c1.4,2.7-41.6,40.8-42,43.9C398.9,451.4,428.1,500.8,426,502.9L426,502.9z"/>
	
		<path id="path3757" inkscape:flatsided="false" inkscape:randomized="0" inkscape:rounded="0.05" inkscape:transform-center-x="-2.9706611" inkscape:transform-center-y="-1.7947173" sodipodi:arg1="0.78539816" sodipodi:arg2="1.4137167" sodipodi:cx="345.71429" sodipodi:cy="523.79077" sodipodi:r1="84.852814" sodipodi:r2="33.941124" sodipodi:sides="5" sodipodi:type="star" class="st2" d="
		M229.7,797.5c-1.7,0.8-23.4-25.4-25.1-25.7c-1.7-0.3-31.6,16-32.8,14.7c-1.2-1.4,16.9-30.1,16.6-31.9c-0.2-1.8-25-25.1-24-26.8
		c0.9-1.5,33.9,6.8,35.5,6c1.7-0.8,16.2-31.5,18-31.2c1.8,0.3,3.9,34.3,5.3,35.7c1.2,1.4,34.9,5.7,35.2,7.4
		c0.2,1.8-31.5,14.4-32.2,16C225,763.3,231.2,796.8,229.7,797.5L229.7,797.5z"/>
	
		<path id="path3759" inkscape:flatsided="false" inkscape:randomized="0" inkscape:rounded="0.05" inkscape:transform-center-x="3.7253876" inkscape:transform-center-y="4.1509962" sodipodi:arg1="0.78539816" sodipodi:arg2="1.4137167" sodipodi:cx="345.71429" sodipodi:cy="523.79077" sodipodi:r1="84.852814" sodipodi:r2="33.941124" sodipodi:sides="5" sodipodi:type="star" class="st1" d="
		M353.7,840.2c-2.7-0.5-8.2-53.5-10.3-55.5c-2.1-2-55.2-7-55.6-9.7s48.4-24.3,49.6-26.9s-10.4-54.6-8-55.8
		c2.6-1.4,38.1,38.4,40.8,38.9s48.7-26.8,50.7-24.8c2,2-24.8,48.1-24.3,51c0.5,2.9,40.5,38,39.3,40.5c-1.2,2.6-53.4-8.8-56-7.4
		C377.6,791.6,356.6,840.6,353.7,840.2L353.7,840.2z"/>
	
		<path id="path3761" inkscape:flatsided="false" inkscape:randomized="0" inkscape:rounded="0.05" inkscape:transform-center-x="2.7631011" inkscape:transform-center-y="0.3534456" sodipodi:arg1="0.78539816" sodipodi:arg2="1.4137167" sodipodi:cx="345.71429" sodipodi:cy="523.79077" sodipodi:r1="84.852814" sodipodi:r2="33.941124" sodipodi:sides="5" sodipodi:type="star" class="st3" d="
		M275.8,633.1c-0.6,0.9-21.6-6.5-22.7-6.2c-1.1,0.3-12.6,19.5-13.6,19.2c-1.1-0.3-0.5-22.5-1.2-23.6c-0.8-0.9-22.4-5.9-22.5-7.1
		c0-1.2,21.3-7.4,22.1-8.3c0.6-0.9-1.4-23.1-0.2-23.6c1.1-0.5,13.6,18,14.8,18.3c1.1,0.3,21.6-8.5,22.4-7.4
		c0.8,0.9-12.9,18.6-12.9,19.7C261.9,615.4,276.4,632.2,275.8,633.1L275.8,633.1z"/>
	
		<path id="path3763" inkscape:flatsided="false" inkscape:randomized="0" inkscape:rounded="0.05" inkscape:transform-center-x="-3.9733928" inkscape:transform-center-y="-1.018807" sodipodi:arg1="0.78539816" sodipodi:arg2="1.4137167" sodipodi:cx="345.71429" sodipodi:cy="523.79077" sodipodi:r1="84.852814" sodipodi:r2="33.941124" sodipodi:sides="5" sodipodi:type="star" class="st4" d="
		M529.3,639.5c0.2,1.8-32.2,12.6-33.1,14.1c-0.9,1.5,3.3,35.2,1.7,36c-1.7,0.6-21.8-26.8-23.6-27.2c-1.8-0.5-32.5,14.1-33.7,12.7
		c-1.2-1.4,18.8-29,18.6-30.8c-0.2-1.8-23.4-26.6-22.4-28.1c0.9-1.5,33.4,8.8,35.1,8.2c1.7-0.6,18.1-30.5,19.8-30.1
		c1.7,0.5,2,34.5,3,35.8C495.7,631.3,529.1,637.7,529.3,639.5L529.3,639.5z"/>
	
		<path id="path3765" inkscape:flatsided="false" inkscape:randomized="0" inkscape:rounded="0.05" inkscape:transform-center-x="-3.000937" inkscape:transform-center-y="2.0195524" sodipodi:arg1="0.78539816" sodipodi:arg2="1.4137167" sodipodi:cx="345.71429" sodipodi:cy="523.79077" sodipodi:r1="84.852814" sodipodi:r2="33.941124" sodipodi:sides="5" sodipodi:type="star" class="st2" d="
		M549.1,861.5c-0.3,1.8-34,6-35.2,7.3c-1.2,1.4-3.6,35.2-5.4,35.5c-1.8,0.3-16.2-30.5-17.8-31.3c-1.7-0.8-34.6,7.4-35.5,5.9
		c-0.9-1.5,24-24.8,24.2-26.6c0.3-1.8-17.8-30.7-16.6-31.9c1.2-1.4,31,15.1,32.8,14.8c1.8-0.3,23.6-26.5,25.3-25.7
		c1.7,0.8-4.8,34.2-3.9,35.8C517.8,847,549.4,859.7,549.1,861.5L549.1,861.5z"/>
	
		<path id="path3769" inkscape:flatsided="false" inkscape:randomized="0" inkscape:rounded="0.05" inkscape:transform-center-x="0.11132289" inkscape:transform-center-y="3.1296143" sodipodi:arg1="0.78539816" sodipodi:arg2="1.4137167" sodipodi:cx="345.71429" sodipodi:cy="523.79077" sodipodi:r1="84.852814" sodipodi:r2="33.941124" sodipodi:sides="5" sodipodi:type="star" class="st3" d="
		M242.1,916.2c-1.2,0-6.5-21.6-7.6-22.4c-0.9-0.8-23.1,0.5-23.6-0.8c-0.3-1.1,18.6-12.9,18.9-14.1c0.3-1.1-7.6-21.9-6.7-22.7
		c0.9-0.8,18,13.6,19.2,13.6c1.2,0,18.6-13.9,19.5-13.3s-7.4,21.3-7.1,22.5c0.3,1.1,19.1,13.3,18.6,14.4c-0.3,1.1-22.5-0.5-23.6,0.2
		C248.8,894.3,243.3,916.2,242.1,916.2z"/>
	
		<path id="path3771" inkscape:flatsided="false" inkscape:randomized="0" inkscape:rounded="0.05" inkscape:transform-center-x="1.8574445" inkscape:transform-center-y="-1.2634893" sodipodi:arg1="0.78539816" sodipodi:arg2="1.4137167" sodipodi:cx="345.71429" sodipodi:cy="523.79077" sodipodi:r1="84.852814" sodipodi:r2="33.941124" sodipodi:sides="5" sodipodi:type="star" class="st3" d="
		M496.9,775.6c-1.1-0.5,3.2-22.4,2.7-23.4s-21.2-9.5-21-10.6c0.2-1.2,22.2-3.8,23.1-4.7c0.8-0.9,2.4-23.1,3.6-23.3
		c1.2-0.2,10.6,20,11.6,20.6c1.1,0.5,22.7-4.8,23.3-3.8c0.6,1.1-15.7,16.2-15.9,17.4s11.5,20.1,10.7,21c-0.8,0.9-20.3-10-21.5-9.8
		C512.3,759.1,498,776,496.9,775.6L496.9,775.6z"/>
	
		<path id="path3773" inkscape:flatsided="false" inkscape:randomized="0" inkscape:rounded="0.05" inkscape:transform-center-x="1.8574445" inkscape:transform-center-y="-1.2634893" sodipodi:arg1="0.78539816" sodipodi:arg2="1.4137167" sodipodi:cx="345.71429" sodipodi:cy="523.79077" sodipodi:r1="84.852814" sodipodi:r2="33.941124" sodipodi:sides="5" sodipodi:type="star" class="st3" d="
		M359.4,607.9c-1.1-0.5,3.2-22.4,2.7-23.4c-0.6-1.1-21.2-9.5-21-10.6c0.2-1.2,22.2-3.8,23.1-4.7c0.8-0.9,2.4-23.1,3.6-23.3
		c1.2-0.2,10.6,20,11.6,20.6c1.1,0.5,22.7-4.8,23.3-3.8s-15.7,16.2-15.9,17.4s11.5,20.1,10.7,21c-0.8,0.9-20.3-10-21.5-9.8
		C375,591.4,360.5,608.5,359.4,607.9L359.4,607.9z"/>
	
		<path id="path3777" sodipodi:cx="351.53308" sodipodi:cy="137.16397" sodipodi:rx="127.27922" sodipodi:ry="127.27922" sodipodi:type="arc" class="st5" d="
		M472.7,165.4c0,70.3-57,127.3-127.3,127.3s-127.2-57-127.2-127.3s57-127.3,127.3-127.3S472.7,95.3,472.7,165.4L472.7,165.4z"/>
</g>
</svg>
