<?xml version="1.0" encoding="utf-8"?>
<!-- Generator: Adobe Illustrator 24.0.2, SVG Export Plug-In . SVG Version: 6.00 Build 0)  -->
<svg version="1.1"
	 id="svg2" inkscape:version="0.48.4 r9939" sodipodi:docname="New document 1" xmlns:cc="http://creativecommons.org/ns#" xmlns:dc="http://purl.org/dc/elements/1.1/" xmlns:inkscape="http://www.inkscape.org/namespaces/inkscape" xmlns:rdf="http://www.w3.org/1999/02/22-rdf-syntax-ns#" xmlns:sodipodi="http://sodipodi.sourceforge.net/DTD/sodipodi-0.dtd" xmlns:svg="http://www.w3.org/2000/svg"
	 xmlns="http://www.w3.org/2000/svg" xmlns:xlink="http://www.w3.org/1999/xlink" x="0px" y="0px" viewBox="0 0 582 930"
	 style="enable-background:new 0 0 582 930;" xml:space="preserve">
<style type="text/css">
	.st0{fill:#FF6A9D;}
	.st1{fill:#FFFCC2;}
	.st2{fill:#C2F0FF;}
	.st3{fill:#C7FFC2;}
	.st4{fill:#C2FDFF;}
	.st5{fill:#93FFAC;}
</style>
<sodipodi:namedview  bordercolor="#666666" borderopacity="1.0" fit-margin-bottom="0" fit-margin-left="0" fit-margin-right="0" fit-margin-top="0" id="base" inkscape:current-layer="layer1" inkscape:cx="6.3969031" inkscape:cy="484.35652" inkscape:document-units="px" inkscape:pageopacity="0.0" inkscape:pageshadow="2" inkscape:window-height="1181" inkscape:window-maximized="0" inkscape:window-width="1166" inkscape:window-x="0" inkscape:window-y="0" inkscape:zoom="0.49497475" pagecolor="#ffffff" showgrid="false">
	</sodipodi:namedview>
<g id="layer1" transform="translate(-62.857143,-38.169022)" inkscape:groupmode="layer" inkscape:label="Layer 1">
	<path id="path2985" inkscape:connector-curvature="0" sodipodi:nodetypes="cccc" class="st0" d="M260.3,599.3L451.1,85.3l194.6,512
		C517.2,663.8,388.8,678.6,260.3,599.3z"/>
	
		<path id="path3755" inkscape:flatsided="false" inkscape:randomized="0" inkscape:rounded="0.05" inkscape:transform-center-x="3.8973855" inkscape:transform-center-y="-3.8973855" sodipodi:arg1="0.78539816" sodipodi:arg2="1.4137167" sodipodi:cx="345.71429" sodipodi:cy="523.79077" sodipodi:r1="84.852814" sodipodi:r2="33.941124" sodipodi:sides="5" sodipodi:type="star" class="st1" d="
		M500.4,345.5c-1.4,1.4-34.2-17.8-36.2-17.5s-27.2,28.7-29,27.8c-1.8-0.9,6.4-38,5.5-39.8c-0.9-1.8-35.7-17-35.4-19
		c0.3-2,38.1-5.7,39.5-7.1c1.4-1.4,5.1-39.2,7.1-39.5c2-0.3,17.2,34.5,19,35.4c1.8,0.9,38.9-7.3,39.8-5.5c0.9,1.8-27.5,27-27.8,29
		C482.5,311.4,501.8,344.1,500.4,345.5L500.4,345.5z"/>
	
		<path id="path3757" inkscape:flatsided="false" inkscape:randomized="0" inkscape:rounded="0.05" inkscape:transform-center-x="-2.9706611" inkscape:transform-center-y="-1.7947173" sodipodi:arg1="0.78539816" sodipodi:arg2="1.4137167" sodipodi:cx="345.71429" sodipodi:cy="523.79077" sodipodi:r1="84.852814" sodipodi:r2="33.941124" sodipodi:sides="5" sodipodi:type="star" class="st2" d="
		M370.6,540.3c-1.1,0.5-15.5-16.8-16.6-17s-20.9,10.6-21.7,9.7c-0.8-0.9,11.2-19.9,11-21.1c-0.1-1.2-16.5-16.6-15.9-17.7
		c0.6-1,22.4,4.5,23.5,4s10.7-20.8,11.9-20.6c1.2,0.2,2.6,22.7,3.5,23.6c0.8,0.9,23.1,3.8,23.3,4.9c0.1,1.2-20.8,9.5-21.3,10.6
		C367.5,517.7,371.6,539.8,370.6,540.3L370.6,540.3z"/>
	
		<path id="path3759" inkscape:flatsided="false" inkscape:randomized="0" inkscape:rounded="0.05" inkscape:transform-center-x="3.7253876" inkscape:transform-center-y="4.1509962" sodipodi:arg1="0.78539816" sodipodi:arg2="1.4137167" sodipodi:cx="345.71429" sodipodi:cy="523.79077" sodipodi:r1="84.852814" sodipodi:r2="33.941124" sodipodi:sides="5" sodipodi:type="star" class="st1" d="
		M452.6,568.5c-1.8-0.3-5.4-35.4-6.8-36.7s-36.5-4.6-36.8-6.4s32-16.1,32.8-17.8c0.8-1.7-6.9-36.1-5.3-36.9
		c1.7-0.9,25.2,25.4,27,25.7c1.8,0.3,32.2-17.7,33.5-16.4c1.3,1.3-16.4,31.8-16.1,33.7s26.8,25.1,26,26.8c-0.8,1.7-35.3-5.8-37-4.9
		C468.4,536.4,454.5,568.8,452.6,568.5L452.6,568.5z"/>
	
		<path id="path3761" inkscape:flatsided="false" inkscape:randomized="0" inkscape:rounded="0.05" inkscape:transform-center-x="2.7631011" inkscape:transform-center-y="0.3534456" sodipodi:arg1="0.78539816" sodipodi:arg2="1.4137167" sodipodi:cx="345.71429" sodipodi:cy="523.79077" sodipodi:r1="84.852814" sodipodi:r2="33.941124" sodipodi:sides="5" sodipodi:type="star" class="st3" d="
		M401.1,431.6c-0.4,0.6-14.3-4.3-15-4.1s-8.3,12.9-9,12.7c-0.7-0.2-0.3-14.9-0.8-15.6c-0.5-0.6-14.8-3.9-14.9-4.7
		c0-0.8,14.1-4.9,14.6-5.5c0.4-0.6-0.9-15.3-0.1-15.6c0.7-0.3,9,11.9,9.8,12.1c0.7,0.2,14.3-5.6,14.8-4.9c0.5,0.6-8.5,12.3-8.5,13
		C391.9,419.9,401.5,431,401.1,431.6L401.1,431.6z"/>
	
		<path id="path3763" inkscape:flatsided="false" inkscape:randomized="0" inkscape:rounded="0.05" inkscape:transform-center-x="-3.9733928" inkscape:transform-center-y="-1.018807" sodipodi:arg1="0.78539816" sodipodi:arg2="1.4137167" sodipodi:cx="345.71429" sodipodi:cy="523.79077" sodipodi:r1="84.852814" sodipodi:r2="33.941124" sodipodi:sides="5" sodipodi:type="star" class="st4" d="
		M568.7,435.8c0.1,1.2-21.3,8.3-21.9,9.3c-0.6,1,2.2,23.3,1.1,23.8c-1.1,0.4-14.4-17.7-15.6-18c-1.2-0.3-21.5,9.3-22.3,8.4
		c-0.8-0.9,12.4-19.2,12.3-20.4c-0.1-1.2-15.5-17.6-14.8-18.6c0.6-1,22.1,5.8,23.2,5.4c1.1-0.4,12-20.2,13.1-19.9s1.3,22.8,2,23.7
		C546.5,430.4,568.6,434.6,568.7,435.8L568.7,435.8z"/>
	
		<path id="path3765" inkscape:flatsided="false" inkscape:randomized="0" inkscape:rounded="0.05" inkscape:transform-center-x="-3.000937" inkscape:transform-center-y="2.0195524" sodipodi:arg1="0.78539816" sodipodi:arg2="1.4137167" sodipodi:cx="345.71429" sodipodi:cy="523.79077" sodipodi:r1="84.852814" sodipodi:r2="33.941124" sodipodi:sides="5" sodipodi:type="star" class="st2" d="
		M581.8,582.6c-0.2,1.2-22.5,4-23.3,4.8c-0.8,0.9-2.4,23.3-3.6,23.5s-10.7-20.2-11.8-20.7c-1.1-0.5-22.9,4.9-23.5,3.9
		c-0.6-1,15.9-16.4,16-17.6c0.2-1.2-11.8-20.3-11-21.1c0.8-0.9,20.5,10,21.7,9.8c1.2-0.2,15.6-17.5,16.7-17
		c1.1,0.5-3.2,22.6-2.6,23.7C561.1,573,582,581.4,581.8,582.6L581.8,582.6z"/>
	
		<path id="path3769" inkscape:flatsided="false" inkscape:randomized="0" inkscape:rounded="0.05" inkscape:transform-center-x="0.11132289" inkscape:transform-center-y="3.1296143" sodipodi:arg1="0.78539816" sodipodi:arg2="1.4137167" sodipodi:cx="345.71429" sodipodi:cy="523.79077" sodipodi:r1="84.852814" sodipodi:r2="33.941124" sodipodi:sides="5" sodipodi:type="star" class="st3" d="
		M378.8,618.8c-0.8,0-4.3-14.3-5-14.8c-0.6-0.5-15.3,0.3-15.6-0.5c-0.2-0.7,12.3-8.5,12.5-9.3c0.2-0.7-5-14.5-4.4-15s11.9,9,12.7,9
		c0.8,0,12.3-9.2,12.9-8.8s-4.9,14.1-4.7,14.9c0.2,0.7,12.6,8.8,12.3,9.5c-0.2,0.7-14.9-0.3-15.6,0.1S379.6,618.8,378.8,618.8z"/>
	
		<path id="path3771" inkscape:flatsided="false" inkscape:randomized="0" inkscape:rounded="0.05" inkscape:transform-center-x="1.8574445" inkscape:transform-center-y="-1.2634893" sodipodi:arg1="0.78539816" sodipodi:arg2="1.4137167" sodipodi:cx="345.71429" sodipodi:cy="523.79077" sodipodi:r1="84.852814" sodipodi:r2="33.941124" sodipodi:sides="5" sodipodi:type="star" class="st3" d="
		M547.3,525.8c-0.7-0.3,2.1-14.8,1.8-15.5s-14-6.3-13.9-7c0.1-0.8,14.7-2.5,15.3-3.1c0.5-0.6,1.6-15.3,2.4-15.4
		c0.8-0.1,7,13.2,7.7,13.6c0.7,0.3,15-3.2,15.4-2.5c0.4,0.7-10.4,10.7-10.5,11.5s7.6,13.3,7.1,13.9c-0.5,0.6-13.4-6.6-14.2-6.5
		C557.5,514.9,548,526.1,547.3,525.8L547.3,525.8z"/>
	
		<path id="path3773" inkscape:flatsided="false" inkscape:randomized="0" inkscape:rounded="0.05" inkscape:transform-center-x="1.8574445" inkscape:transform-center-y="-1.2634893" sodipodi:arg1="0.78539816" sodipodi:arg2="1.4137167" sodipodi:cx="345.71429" sodipodi:cy="523.79077" sodipodi:r1="84.852814" sodipodi:r2="33.941124" sodipodi:sides="5" sodipodi:type="star" class="st3" d="
		M456.4,414.9c-0.7-0.3,2.1-14.8,1.8-15.5c-0.4-0.7-14-6.3-13.9-7c0.1-0.8,14.7-2.5,15.3-3.1c0.5-0.6,1.6-15.3,2.4-15.4
		c0.8-0.1,7,13.2,7.7,13.6c0.7,0.3,15-3.2,15.4-2.5c0.4,0.7-10.4,10.7-10.5,11.5c-0.1,0.8,7.6,13.3,7.1,13.9
		c-0.5,0.6-13.4-6.6-14.2-6.5C466.7,404,457.1,415.3,456.4,414.9L456.4,414.9z"/>
	
		<path id="path3777" sodipodi:cx="351.53308" sodipodi:cy="137.16397" sodipodi:rx="127.27922" sodipodi:ry="127.27922" sodipodi:type="arc" class="st5" d="
		M531.3,122.3c0,46.5-37.7,84.2-84.2,84.2S363,168.8,363,122.3s37.7-84.2,84.2-84.2S531.3,75.9,531.3,122.3L531.3,122.3z"/>
</g>
</svg>
