<?xml version="1.0" encoding="utf-8"?>
<!-- Generator: Adobe Illustrator 24.0.2, SVG Export Plug-In . SVG Version: 6.00 Build 0)  -->
<svg version="1.1" id="Layer_1" xmlns="http://www.w3.org/2000/svg" xmlns:xlink="http://www.w3.org/1999/xlink" x="0px" y="0px"
	 viewBox="0 0 1280 720" style="enable-background:new 0 0 1280 720;" xml:space="preserve">
<style type="text/css">
	.st0{fill:#FF6A9D;}
	.st1{fill:#FFFCC2;}
	.st2{fill:#C2F0FF;}
	.st3{fill:#C7FFC2;}
	.st4{fill:#C2FDFF;}
	.st5{fill:#93FFAC;}
</style>
<g id="layer1" transform="translate(-62.857143,-38.169022)">
	<path id="path2985" class="st0" d="M849.25,599.37l190.8-514l194.6,512C1106.15,663.87,977.75,678.67,849.25,599.37z"/>
	<path id="path3755" class="st1" d="M1089.35,345.57c-1.4,1.4-34.2-17.8-36.2-17.5s-27.2,28.7-29,27.8c-1.8-0.9,6.4-38,5.5-39.8
		s-35.7-17-35.4-19s38.1-5.7,39.5-7.1s5.1-39.2,7.1-39.5s17.2,34.5,19,35.4c1.8,0.9,38.9-7.3,39.8-5.5s-27.5,27-27.8,29
		C1071.45,311.47,1090.75,344.17,1089.35,345.57L1089.35,345.57z"/>
	<path id="path3757" class="st2" d="M959.55,540.37c-1.1,0.5-15.5-16.8-16.6-17c-1.1-0.2-20.9,10.6-21.7,9.7
		c-0.8-0.9,11.2-19.9,11-21.1c-0.1-1.2-16.5-16.6-15.9-17.7c0.6-1,22.4,4.5,23.5,4c1.1-0.5,10.7-20.8,11.9-20.6
		c1.2,0.2,2.6,22.7,3.5,23.6c0.8,0.9,23.1,3.8,23.3,4.9c0.1,1.2-20.8,9.5-21.3,10.6C956.45,517.77,960.55,539.87,959.55,540.37
		L959.55,540.37z"/>
	<path id="path3759" class="st1" d="M1041.55,568.57c-1.8-0.3-5.4-35.4-6.8-36.7c-1.4-1.3-36.5-4.6-36.8-6.4s32-16.1,32.8-17.8
		c0.8-1.7-6.9-36.1-5.3-36.9c1.7-0.9,25.2,25.4,27,25.7c1.8,0.3,32.2-17.7,33.5-16.4c1.3,1.3-16.4,31.8-16.1,33.7
		c0.3,1.9,26.8,25.1,26,26.8c-0.8,1.7-35.3-5.8-37-4.9C1057.35,536.47,1043.45,568.87,1041.55,568.57L1041.55,568.57z"/>
	<path id="path3761" class="st3" d="M990.05,431.67c-0.4,0.6-14.3-4.3-15-4.1s-8.3,12.9-9,12.7c-0.7-0.2-0.3-14.9-0.8-15.6
		c-0.5-0.6-14.8-3.9-14.9-4.7c0-0.8,14.1-4.9,14.6-5.5c0.4-0.6-0.9-15.3-0.1-15.6c0.7-0.3,9,11.9,9.8,12.1
		c0.7,0.2,14.3-5.6,14.8-4.9c0.5,0.6-8.5,12.3-8.5,13C980.85,419.97,990.45,431.07,990.05,431.67L990.05,431.67z"/>
	<path id="path3763" class="st4" d="M1157.65,435.87c0.1,1.2-21.3,8.3-21.9,9.3c-0.6,1,2.2,23.3,1.1,23.8
		c-1.1,0.4-14.4-17.7-15.6-18s-21.5,9.3-22.3,8.4c-0.8-0.9,12.4-19.2,12.3-20.4c-0.1-1.2-15.5-17.6-14.8-18.6
		c0.6-1,22.1,5.8,23.2,5.4s12-20.2,13.1-19.9s1.3,22.8,2,23.7C1135.45,430.47,1157.55,434.67,1157.65,435.87L1157.65,435.87z"/>
	<path id="path3765" class="st2" d="M1170.75,582.67c-0.2,1.2-22.5,4-23.3,4.8c-0.8,0.9-2.4,23.3-3.6,23.5s-10.7-20.2-11.8-20.7
		s-22.9,4.9-23.5,3.9s15.9-16.4,16-17.6c0.2-1.2-11.8-20.3-11-21.1c0.8-0.9,20.5,10,21.7,9.8c1.2-0.2,15.6-17.5,16.7-17
		s-3.2,22.6-2.6,23.7C1150.05,573.07,1170.95,581.47,1170.75,582.67L1170.75,582.67z"/>
	<path id="path3769" class="st3" d="M967.75,618.87c-0.8,0-4.3-14.3-5-14.8c-0.6-0.5-15.3,0.3-15.6-0.5c-0.2-0.7,12.3-8.5,12.5-9.3
		c0.2-0.7-5-14.5-4.4-15c0.6-0.5,11.9,9,12.7,9s12.3-9.2,12.9-8.8c0.6,0.4-4.9,14.1-4.7,14.9c0.2,0.7,12.6,8.8,12.3,9.5
		c-0.2,0.7-14.9-0.3-15.6,0.1S968.55,618.87,967.75,618.87z"/>
	<path id="path3771" class="st3" d="M1136.25,525.87c-0.7-0.3,2.1-14.8,1.8-15.5c-0.3-0.7-14-6.3-13.9-7c0.1-0.8,14.7-2.5,15.3-3.1
		c0.5-0.6,1.6-15.3,2.4-15.4s7,13.2,7.7,13.6c0.7,0.3,15-3.2,15.4-2.5s-10.4,10.7-10.5,11.5s7.6,13.3,7.1,13.9s-13.4-6.6-14.2-6.5
		C1146.45,514.97,1136.95,526.17,1136.25,525.87L1136.25,525.87z"/>
	<path id="path3773" class="st3" d="M1045.35,414.97c-0.7-0.3,2.1-14.8,1.8-15.5c-0.4-0.7-14-6.3-13.9-7c0.1-0.8,14.7-2.5,15.3-3.1
		c0.5-0.6,1.6-15.3,2.4-15.4c0.8-0.1,7,13.2,7.7,13.6c0.7,0.3,15-3.2,15.4-2.5c0.4,0.7-10.4,10.7-10.5,11.5
		c-0.1,0.8,7.6,13.3,7.1,13.9s-13.4-6.6-14.2-6.5C1055.65,404.07,1046.05,415.37,1045.35,414.97L1045.35,414.97z"/>
	<path id="path3777" class="st5" d="M1120.25,122.37c0,46.5-37.7,84.2-84.2,84.2c-46.5,0-84.1-37.7-84.1-84.2s37.7-84.2,84.2-84.2
		S1120.25,75.97,1120.25,122.37L1120.25,122.37z"/>
</g>
</svg>
